<?xml version="1.0" ?><svg id="social_x5F_chat_x5F_hashtag" style="enable-background:new 0 0 32 32;" version="1.1" viewBox="0 0 32 32" xml:space="preserve" xmlns="http://www.w3.org/2000/svg" xmlns:xlink="http://www.w3.org/1999/xlink"><g><g><path d="M25,32c-0.26,0-0.516-0.102-0.707-0.293L18.586,26H3c-0.265,0-0.52-0.105-0.707-0.293l-2-2    C0.105,23.52,0,23.266,0,23V3c0-0.266,0.105-0.52,0.293-0.707l2-2C2.48,0.105,2.735,0,3,0h26c0.265,0,0.52,0.105,0.707,0.293l2,2    C31.895,2.48,32,2.734,32,3v20c0,0.266-0.105,0.52-0.293,0.707l-2,2C29.52,25.895,29.265,26,29,26h-3v5    c0,0.404-0.244,0.77-0.617,0.924C25.259,31.976,25.129,32,25,32z M3.414,24H19c0.265,0,0.52,0.105,0.707,0.293L24,28.586V25    c0-0.553,0.448-1,1-1h3.586L30,22.586V3.414L28.586,2H3.414L2,3.414v19.172L3.414,24z" style="fill:#FD5C3F;"/></g><g><rect height="12" style="fill:#FD5C3F;" width="2" x="12" y="7"/></g><g><rect height="12" style="fill:#FD5C3F;" width="2" x="18" y="7"/></g><g><rect height="12" style="fill:#FD5C3F;" width="2" x="12" y="7"/></g><g><rect height="12" style="fill:#FD5C3F;" width="2" x="18" y="7"/></g><g><rect height="2" style="fill:#FD5C3F;" width="12" x="10" y="9"/></g><g><rect height="2" style="fill:#FD5C3F;" width="12" x="10" y="15"/></g><g><rect height="2" style="fill:#FD5C3F;" width="12" x="10" y="9"/></g><g><rect height="2" style="fill:#FD5C3F;" width="12" x="10" y="15"/></g></g></svg>